<svg width="613" height="613" viewBox="0 0 613 613" fill="none" xmlns="http://www.w3.org/2000/svg">
<rect width="613" height="613" rx="61" fill="black"/>
<path d="M333.407 332.367C330.922 331.913 328.735 331.694 326.548 331.692C284.801 331.664 243.053 331.574 201.306 331.73C193.294 331.76 188.067 328.694 184.118 321.6C170.771 297.618 157.108 273.809 143.296 250.092C138.968 242.662 138.843 235.983 143.272 228.513C156.436 206.307 169.708 184.141 181.984 161.44C188.89 148.669 202.759 149.059 209.694 161.378C235.475 207.17 261.947 252.572 288.21 298.091C293.532 307.315 300.597 307.182 305.949 297.834C324.231 265.897 342.549 233.981 360.669 201.952C364.216 195.681 369.009 192.782 376.181 192.82C403.279 192.963 430.379 192.87 457.478 192.899C470.339 192.913 476.923 204.092 470.522 215.329C435.274 277.216 399.944 339.056 364.653 400.919C355.218 417.458 345.701 433.952 336.468 450.604C332.874 457.085 327.851 460.035 320.48 460C293.747 459.871 267.014 460.005 240.281 459.956C226.167 459.931 219.853 449.047 226.816 436.764C241.804 410.328 256.943 383.977 271.827 357.482C274.976 351.877 279.114 349.425 285.558 349.609C297.084 349.937 308.629 349.563 320.16 349.8C324.362 349.887 327.274 348.574 328.889 344.717C330.556 340.738 332.104 336.709 333.407 332.367Z" fill="#FDFDFD"/>
</svg>
